<?xml version="1.0" encoding="UTF-8"?>
<svg version="1.1" xmlns="http://www.w3.org/2000/svg" width="163" height="180">
<path d="M0 0 C53.79 0 107.58 0 163 0 C163 59.4 163 118.8 163 180 C109.21 180 55.42 180 0 180 C0 120.6 0 61.2 0 0 Z " fill="#FDCF5C" transform="translate(0,0)"/>
<path d="M0 0 C53.79 0 107.58 0 163 0 C163 59.4 163 118.8 163 180 C109.21 180 55.42 180 0 180 C0 120.6 0 61.2 0 0 Z M12.6875 24.25 C8.22468314 31.52273859 7.55551024 38.76765029 7.58007812 47.14428711 C7.57160858 48.22193832 7.56313904 49.29958954 7.55441284 50.40989685 C7.53113811 53.94916801 7.53001837 57.48800206 7.53125 61.02734375 C7.52414333 63.50159375 7.51644359 65.9758421 7.50817871 68.4500885 C7.4947562 73.62717271 7.49315547 78.80410447 7.49902344 83.98120117 C7.50492098 90.599771 7.47431392 97.21760767 7.43390656 103.83603573 C7.40800017 108.94316008 7.4051548 114.0501085 7.40879822 119.15728951 C7.40711013 121.59682624 7.39749782 124.03637137 7.37965393 126.47584343 C7.35740436 129.89316167 7.36719785 133.30900317 7.38476562 136.72631836 C7.37150238 137.72350891 7.35823914 138.72069946 7.34457397 139.74810791 C7.43685026 147.51237359 9.45288743 154.19474527 14.84329987 159.97744656 C20.24351362 164.95628947 24.78429245 165.14871918 31.99267578 165.12939453 C32.79696014 165.13114685 33.60124451 165.13289917 34.42990112 165.13470459 C37.10172669 165.13911773 39.77348619 165.13617872 42.4453125 165.1328125 C44.33112602 165.13348765 46.21693946 165.13445943 48.10275269 165.13571167 C52.07908955 165.1371895 56.05540402 165.13503852 60.03173828 165.13037109 C65.02016176 165.12478919 70.00853063 165.12798664 74.99695206 165.13379288 C93.14740282 165.15192501 111.29885952 165.13010371 129.44457626 164.67306137 C130.91975816 164.6361844 132.3950156 164.60220119 133.87033463 164.57129288 C135.87457731 164.52752222 137.87848218 164.46901168 139.88232422 164.40966797 C140.9990451 164.37904266 142.11576599 164.34841736 143.2663269 164.31686401 C146.21529819 164.1852294 146.21529819 164.1852294 149 162 C149.41428346 160.06923522 149.41428346 160.06923522 149.29296875 157.8671875 C149.2784668 156.65869141 149.2784668 156.65869141 149.26367188 155.42578125 C149.23853516 154.58402344 149.21339844 153.74226562 149.1875 152.875 C149.17396484 152.02550781 149.16042969 151.17601562 149.14648438 150.30078125 C149.11108219 148.20025163 149.05727401 146.10004707 149 144 C149.66 144 150.32 144 151 144 C151.81604999 142.0848421 152.62770632 140.16781166 153.4375 138.25 C154.11619141 136.64898437 154.11619141 136.64898437 154.80859375 135.015625 C159.25940538 123.74996408 157.72300314 112.10113779 153.484375 101.0859375 C150.84192692 95.59242702 147.96272641 91.5974873 143.125 87.875 C141.81402344 86.86566406 141.81402344 86.86566406 140.4765625 85.8359375 C135.67734898 81.77902543 135.67734898 81.77902543 130 80 C130.01571045 78.71424072 130.0314209 77.42848145 130.04760742 76.10375977 C130.10219902 71.30108994 130.13645594 66.49844717 130.16479492 61.69555664 C130.17981521 59.62291846 130.20023747 57.55031171 130.22631836 55.4777832 C130.26300024 52.48641164 130.27979435 49.4954629 130.29296875 46.50390625 C130.30845261 45.58791153 130.32393646 44.67191681 130.33988953 43.72816467 C130.34176744 36.43313361 129.26682428 28.79006562 124.25 23.125 C123.80140625 22.59132813 123.3528125 22.05765625 122.890625 21.5078125 C117.34610041 17.08593958 111.79850003 16.55550066 104.97875977 16.58007812 C104.103013 16.57160858 103.22726624 16.56313904 102.32498169 16.55441284 C99.44697311 16.53112597 96.56950169 16.53001864 93.69140625 16.53125 C91.68033131 16.52414388 89.66925838 16.51644422 87.65818787 16.50817871 C83.44939533 16.49475332 79.24079034 16.49315663 75.03198242 16.49902344 C69.65067813 16.50492042 64.27027574 16.47431858 58.88914585 16.43390656 C54.73771861 16.40800185 50.58650783 16.40515462 46.43501091 16.40879822 C44.45155507 16.40710986 42.46808892 16.39749481 40.4847126 16.37965393 C37.70607981 16.357407 34.92926372 16.3671945 32.15063477 16.38476562 C31.33947708 16.37150238 30.5283194 16.35823914 29.69258118 16.34457397 C22.53217713 16.44927365 17.75911453 19.31545614 12.6875 24.25 Z " fill="#FEFEFC" transform="translate(0,0)"/>
<path d="M0 0 C0.68441162 -0.00580078 1.36882324 -0.01160156 2.07397461 -0.01757812 C5.79352743 0.07251641 8.83859464 0.66816517 12.31079102 2.02929688 C13.017444 2.30350464 13.72409698 2.5777124 14.4521637 2.86022949 C14.98357468 3.07135376 15.51498566 3.28247803 16.0625 3.5 C16.08715098 8.46622349 16.10533649 13.43241166 16.11743164 18.39868164 C16.1224719 20.08944316 16.12930405 21.78020029 16.13793945 23.47094727 C16.15001857 25.89600707 16.15573123 28.32100944 16.16015625 30.74609375 C16.16531754 31.50651474 16.17047882 32.26693573 16.17579651 33.05039978 C16.17599238 34.8673257 16.12447277 36.68413127 16.0625 38.5 C15.7325 38.83 15.4025 39.16 15.0625 39.5 C14.8610293 44.6276347 14.8610293 44.6276347 15.5546875 49.67578125 C16.28957649 53.76289463 16.28697405 57.79272371 16.3125 61.9375 C16.333125 62.77087891 16.35375 63.60425781 16.375 64.46289062 C16.41985674 71.5558619 14.30722686 76.09937843 10.125 81.8125 C9.64160156 82.48925781 9.15820312 83.16601562 8.66015625 83.86328125 C5.49868207 87.10205309 1.38490863 86.71185568 -2.9375 86.8125 C-9.84263519 86.78903974 -15.57719708 85.06704118 -21.9375 82.5 C-21.9375 81.84 -21.9375 81.18 -21.9375 80.5 C-22.659375 80.273125 -23.38125 80.04625 -24.125 79.8125 C-31.24679479 76.48899577 -37.59071732 67.93516662 -40.8125 60.8125 C-44.79238464 49.09395079 -44.29408527 34.757186 -39.25 23.5 C-36.87237931 18.97803462 -33.68557353 14.97112229 -29.9375 11.5 C-29.2775 11.5 -28.6175 11.5 -27.9375 11.5 C-27.9375 10.84 -27.9375 10.18 -27.9375 9.5 C-26.6175 9.17 -25.2975 8.84 -23.9375 8.5 C-23.9375 7.51 -23.9375 6.52 -23.9375 5.5 C-15.99200919 2.26166313 -8.64589153 0.00769978 0 0 Z " fill="#FAA336" transform="translate(113.9375,76.5)"/>
<path d="M0 0 C0.77415253 -0.0049649 1.54830505 -0.00992981 2.34591675 -0.01504517 C4.91307456 -0.02967891 7.48017057 -0.03647073 10.04736328 -0.04199219 C11.8285421 -0.04774258 13.60972089 -0.05350032 15.39089966 -0.05926514 C19.12844125 -0.06977853 22.86596132 -0.075619 26.60351562 -0.07910156 C31.39435491 -0.08458749 36.18491015 -0.10861612 40.97566032 -0.13707352 C44.65594313 -0.15569065 48.33615739 -0.160905 52.01648331 -0.16243744 C53.78274209 -0.16546652 55.54899959 -0.17350363 57.31521225 -0.18662262 C59.7858826 -0.20366427 62.25585733 -0.2018077 64.7265625 -0.1953125 C65.45709839 -0.20452728 66.18763428 -0.21374207 66.94030762 -0.22323608 C70.0252967 -0.19781098 72.20247163 0.00652712 74.94680786 1.46856689 C76.49267578 3.16113281 76.49267578 3.16113281 76.99267578 6.59863281 C76.49267578 10.16113281 76.49267578 10.16113281 74.94482422 12.35144043 C71.62294218 14.80299863 68.73098728 14.72293257 64.75830078 14.67871094 C63.59663391 14.68922485 63.59663391 14.68922485 62.41149902 14.69995117 C59.85485846 14.7175378 57.29932734 14.7059067 54.74267578 14.69238281 C52.96435331 14.69507755 51.18603227 14.69895982 49.40771484 14.70397949 C45.6819861 14.70987542 41.95664114 14.70130868 38.23095703 14.68261719 C33.45568291 14.6598274 28.68130802 14.67295 23.90606689 14.69690704 C20.2343061 14.71136256 16.56275843 14.7067602 12.89099121 14.69639587 C11.13032932 14.6937279 9.36964807 14.69700086 7.60900879 14.70631409 C5.14783491 14.71647589 2.68811628 14.70098534 0.22705078 14.67871094 C-0.86403992 14.69085632 -0.86403992 14.69085632 -1.97717285 14.70324707 C-5.34942069 14.64671654 -7.21895526 14.37123305 -9.97509766 12.36315918 C-12.12805095 9.26906068 -11.78993232 6.83503814 -11.50732422 3.16113281 C-10.84732422 3.16113281 -10.18732422 3.16113281 -9.50732422 3.16113281 C-9.50732422 2.50113281 -9.50732422 1.84113281 -9.50732422 1.16113281 C-6.4752474 -0.35490559 -3.32672052 0.00506246 0 0 Z " fill="#FEFDFA" transform="translate(35.50732421875,38.8388671875)"/>
<path d="M0 0 C0.91096939 -0.00945648 1.82193878 -0.01891296 2.76051331 -0.02865601 C3.73665085 -0.02258331 4.71278839 -0.01651062 5.71850586 -0.01025391 C6.72674911 -0.01312408 7.73499237 -0.01599426 8.77378845 -0.01895142 C10.90290896 -0.02099111 13.03204825 -0.0154679 15.16113281 -0.00292969 C18.4248223 0.0131416 21.68727649 -0.00279062 24.95092773 -0.02197266 C27.01928985 -0.01999054 29.08765119 -0.01614751 31.15600586 -0.01025391 C32.13416763 -0.0163266 33.11232941 -0.02239929 34.12013245 -0.02865601 C35.02794968 -0.01919952 35.93576691 -0.00974304 36.87109375 0 C38.06878136 0.00358017 38.06878136 0.00358017 39.29066467 0.00723267 C41.89436116 0.48405594 42.75617887 1.32881431 44.37084961 3.38818359 C45.24584961 5.76318359 45.24584961 5.76318359 45.37084961 8.38818359 C43.17681976 12.98519852 43.17681976 12.98519852 40.37084961 14.38818359 C38.90623012 14.49277411 37.43704623 14.53684211 35.96875 14.54931641 C35.05762955 14.55892395 34.14650909 14.56853149 33.20777893 14.57843018 C32.22131882 14.58268005 31.2348587 14.58692993 30.21850586 14.59130859 C28.70189613 14.5998587 28.70189613 14.5998587 27.15464783 14.60858154 C25.01359099 14.61803775 22.87251957 14.62456798 20.73144531 14.62841797 C17.45018266 14.63813375 14.16954355 14.66915572 10.88842773 14.70068359 C8.81095751 14.70721246 6.73348279 14.71246339 4.65600586 14.71630859 C3.67156998 14.7286554 2.68713409 14.7410022 1.67286682 14.75372314 C0.75859421 14.75072205 -0.15567841 14.74772095 -1.09765625 14.74462891 C-2.30439247 14.75009735 -2.30439247 14.75009735 -3.5355072 14.75567627 C-6.14494084 14.29764801 -7.02171289 13.45429457 -8.62915039 11.38818359 C-9.06274414 9.45068359 -9.06274414 9.45068359 -9.06665039 7.38818359 C-9.08598633 6.70755859 -9.10532227 6.02693359 -9.12524414 5.32568359 C-7.99541497 0.91312242 -4.09377439 0.01222507 0 0 Z " fill="#FDFDF5" transform="translate(32.629150390625,65.61181640625)"/>
<path d="M0 0 C1.31806641 -0.00386719 2.63613281 -0.00773437 3.99414062 -0.01171875 C4.67822998 -0.00543457 5.36231934 0.00084961 6.06713867 0.00732422 C8.15024622 0.02336121 10.23140627 0.0074753 12.31445312 -0.01171875 C14.29348633 -0.00591797 14.29348633 -0.00591797 16.3125 0 C17.51769287 0.00338379 18.72288574 0.00676758 19.96459961 0.01025391 C23.49538502 0.43093197 25.40620746 1.26299251 28.22265625 3.3984375 C28.81640625 5.3359375 28.81640625 5.3359375 28.72265625 7.3984375 C28.71234375 8.0790625 28.70203125 8.7596875 28.69140625 9.4609375 C28.0604285 12.06897886 27.40842799 12.81154514 25.22265625 14.3984375 C22.67078481 14.6966059 20.36763118 14.81910476 17.81640625 14.796875 C17.09529663 14.79974518 16.37418701 14.80261536 15.63122559 14.80557251 C14.1081463 14.80761202 12.58504075 14.80208997 11.06201172 14.78955078 C8.73084947 14.77349393 6.40142083 14.7894016 4.0703125 14.80859375 C2.58983992 14.8066113 1.10936843 14.80276757 -0.37109375 14.796875 C-1.06803345 14.80294769 -1.76497314 14.80902039 -2.48303223 14.8152771 C-5.39368852 14.77298205 -7.31592365 14.73305291 -9.71313477 12.99462891 C-11.03427062 11.01307666 -11.21035058 9.77083259 -11.21484375 7.3984375 C-11.23417969 6.7178125 -11.25351562 6.0371875 -11.2734375 5.3359375 C-10.77734375 3.3984375 -10.77734375 3.3984375 -9.16992188 1.80224609 C-5.98449819 -0.0667525 -3.68209498 0.01034781 0 0 Z " fill="#FEFDF8" transform="translate(34.77734375,93.6015625)"/>
<path d="M0 0 C0.88012756 -0.00350464 1.76025513 -0.00700928 2.66705322 -0.01062012 C5.5757232 -0.01942069 8.48414982 -0.01359364 11.39282227 -0.00683594 C13.41537014 -0.00818319 15.43791771 -0.01012422 17.46046448 -0.01263428 C21.69974856 -0.01558337 25.93894837 -0.01129519 30.17822266 -0.00195312 C35.61006357 0.00943396 41.04170667 0.00288525 46.47354031 -0.00909805 C50.65055326 -0.01632862 54.8275194 -0.01402308 59.00453377 -0.00884247 C61.00719285 -0.00750891 63.00985619 -0.00914341 65.0125103 -0.01380157 C67.81314201 -0.0188856 70.61345453 -0.01112977 73.4140625 0 C74.24071915 -0.00404846 75.06737579 -0.00809692 75.91908264 -0.01226807 C80.15754476 0.01890569 83.40315297 0.30337802 87.27172852 2.25878906 C87.27172852 2.58878906 87.27172852 2.91878906 87.27172852 3.25878906 C75.36277586 3.28195649 63.45382857 3.29972664 51.54485798 3.31060123 C46.01508603 3.31582041 40.48532949 3.32290059 34.95556641 3.33422852 C29.61932918 3.34509162 24.28310679 3.35107318 18.94685936 3.35366631 C16.9107051 3.35551437 14.87455165 3.35912313 12.8384037 3.36451912 C9.98714059 3.37177492 7.13593882 3.37277808 4.28466797 3.37231445 C3.02123062 3.37770737 3.02123062 3.37770737 1.73226929 3.38320923 C-2.22414698 3.37624519 -5.86569056 3.24184928 -9.72827148 2.25878906 C-10.05827148 3.24878906 -10.38827148 4.23878906 -10.72827148 5.25878906 C-13.62385589 6.70658127 -15.47016086 7.25878906 -18.72827148 7.25878906 C-12.33760051 1.73957322 -8.66623727 -0.04233829 0 0 Z " fill="#F9D369" transform="translate(31.728271484375,16.7412109375)"/>
<path d="M0 0 C28.38 0 56.76 0 86 0 C87.22485812 2.44971624 87.16722808 4.14234461 87.1875 6.875 C87.20167969 7.73867188 87.21585937 8.60234375 87.23046875 9.4921875 C86.98522656 12.16075509 86.4364726 13.75204639 85 16 C81.94060739 17.5296963 78.72855952 17.18824594 75.36914062 17.22119141 C74.58202194 17.2326973 73.79490326 17.24420319 72.9839325 17.25605774 C70.37474502 17.29282474 67.765533 17.3224212 65.15625 17.3515625 C63.34785612 17.37467031 61.53946582 17.39806056 59.7310791 17.42172241 C55.93810085 17.47021197 52.14510097 17.51513908 48.35205078 17.55761719 C43.48256391 17.61245398 38.61324383 17.67628051 33.74390411 17.74279213 C30.00885114 17.79279271 26.2737517 17.83794871 22.53862 17.88163376 C20.74279385 17.90324385 18.94698562 17.92639778 17.15119934 17.9510994 C14.64444707 17.98487178 12.13770774 18.01211494 9.63085938 18.03759766 C8.8837822 18.04897263 8.13670502 18.0603476 7.36698914 18.07206726 C2.22850824 18.11425412 2.22850824 18.11425412 0 17 C0 16.01 0 15.02 0 14 C1.53096062 14.00999275 1.53096062 14.00999275 3.09284973 14.02018738 C12.70152352 14.08094683 22.31015844 14.12594775 31.9189806 14.15543652 C36.85923569 14.17110654 41.79933597 14.19236918 46.73950195 14.22631836 C51.50516473 14.25886417 56.2706784 14.27684294 61.03644371 14.28463173 C62.85656775 14.29018384 64.67668343 14.30102552 66.49674416 14.31719017 C69.04203691 14.33890112 71.58670994 14.34196961 74.13208008 14.34057617 C75.26604218 14.35675491 75.26604218 14.35675491 76.4229126 14.3732605 C80.41793618 14.35200034 80.41793618 14.35200034 83.9683075 12.70137024 C85.71881897 9.81459136 85.35608358 7.2640995 85 4 C81.27842573 1.51895049 78.43594364 1.73201246 74.13208008 1.77294922 C73.33184921 1.77265717 72.53161835 1.77236511 71.70713806 1.77206421 C69.06115896 1.77345795 66.41546118 1.78902116 63.76953125 1.8046875 C61.93536025 1.80841747 60.10118726 1.81126452 58.26701355 1.81326294 C53.43859357 1.82090062 48.61029384 1.84055028 43.78192139 1.8626709 C38.85528185 1.88312641 33.92862289 1.89226403 29.00195312 1.90234375 C19.33458257 1.92379603 9.66730128 1.95793363 0 2 C0 1.34 0 0.68 0 0 Z " fill="#F2D583" transform="translate(26,38)"/>
<path d="M0 0 C1 3 1 3 0.07837296 4.88388062 C-0.27749012 5.58220001 -0.6333532 6.28051941 -1 7 C-1.29799508 9.3332253 -1.29799508 9.3332253 -1.25396729 11.85791016 C-1.25960693 12.83367004 -1.26524658 13.80942993 -1.27105713 14.8147583 C-1.26700867 15.87877869 -1.26296021 16.94279907 -1.25878906 18.0390625 C-1.2622937 19.16463562 -1.26579834 20.29020874 -1.26940918 21.44989014 C-1.27822036 25.17498927 -1.27237938 28.89989889 -1.265625 32.625 C-1.26697182 35.21044959 -1.2689125 37.79589893 -1.27142334 40.38134766 C-1.27437378 45.80178469 -1.27026997 51.22215034 -1.26074219 56.64257812 C-1.24985805 62.90694104 -1.25338379 69.17117376 -1.264395 75.43553352 C-1.27456822 81.46475141 -1.27348677 87.49390566 -1.26763153 93.52313232 C-1.26629562 96.08762632 -1.26794069 98.65212364 -1.27259064 101.21661377 C-1.27765923 104.79814506 -1.26994063 108.37942497 -1.25878906 111.9609375 C-1.26283752 113.02495789 -1.26688599 114.08897827 -1.27105713 115.1852417 C-1.26541748 116.16100159 -1.25977783 117.13676147 -1.25396729 118.14208984 C-1.25321323 118.98863129 -1.25245918 119.83517273 -1.25168228 120.70736694 C-1.13652577 123.04394779 -1.13652577 123.04394779 0.07837296 125.05361938 C1.22031924 127.46529135 0.87829399 128.54077682 0 131 C-3.8981788 124.44657458 -4.5743797 119.50294818 -4.50170898 111.95336914 C-4.50711197 110.87425766 -4.51251495 109.79514618 -4.51808167 108.68333435 C-4.53053844 105.13365841 -4.51409615 101.58479841 -4.49609375 98.03515625 C-4.49624882 95.5570827 -4.49773911 93.0790089 -4.50050354 90.60093689 C-4.50188622 85.4136174 -4.48935178 80.22657484 -4.46655273 75.03930664 C-4.43818388 68.40394396 -4.44090342 61.76904173 -4.45364285 55.13364506 C-4.46061229 50.01798093 -4.45279594 44.90242241 -4.44038582 39.78677177 C-4.43588261 37.34084923 -4.4355246 34.89491531 -4.43945122 32.44899178 C-4.44237538 29.02443501 -4.42579742 25.60050302 -4.40405273 22.17602539 C-4.40855438 21.17366852 -4.41305603 20.17131165 -4.41769409 19.13858032 C-4.34456267 12.1744392 -3.12532849 6.25065699 0 0 Z " fill="#FCDB89" transform="translate(12,25)"/>
<path d="M0 0 C2.31279611 1.15639806 4.17409828 2.17409828 6 4 C6.43645925 11.71078002 6.43645925 11.71078002 4 15 C0.78044012 17.29968563 -2.12559532 17.55348638 -6 17 C-8.86972996 15.00366611 -10.65210765 13.52770117 -11.44921875 10.02734375 C-11.63266213 6.64312969 -11.23264513 4.37223221 -9.4375 1.5 C-6.06236872 -0.57700386 -3.90199054 -0.47919182 0 0 Z " fill="#FDFDF4" transform="translate(140,113)"/>
<path d="M0 0 C4.14866582 0.66674986 5.81886615 1.31264078 8.5 4.5625 C9.2975483 9.58705429 9.32360163 11.39976829 6.375 15.5625 C3.00172663 17.90912495 1.52250703 18.16159679 -2.5 17.5625 C-5.08971247 16.69926251 -6.16500737 16.03148968 -7.75 13.8125 C-8.75828913 10.7876326 -8.95341075 8.73637527 -8.5 5.5625 C-5.88580444 1.91846982 -4.45776553 0.7164266 0 0 Z " fill="#FDFBF2" transform="translate(113.5,112.4375)"/>
<path d="M0 0 C3.32635764 2.18839318 3.90585122 3.62340488 4.875 7.5 C5.04878049 12.36585366 5.04878049 12.36585366 3 15 C0.378587 17.11729512 -1.82290179 17.11871289 -5.0625 16.875 C-7.71814139 16.43486577 -8.84229506 16.12320698 -11 14.4375 C-12.45360213 10.8943448 -12.80967808 7.76307528 -12 4 C-8.51708493 -0.22171524 -5.31642554 -0.77329826 0 0 Z " fill="#FDF9EC" transform="translate(94,113)"/>
<path d="M0 0 C0.66 0.33 1.32 0.66 2 1 C1.67 1.99 1.34 2.98 1 4 C0.34 4 -0.32 4 -1 4 C-1 5.32 -1 6.64 -1 8 C-0.01 8.33 0.98 8.66 2 9 C2 9.66 2 10.32 2 11 C2.66 11 3.32 11 4 11 C4 10.34 4 9.68 4 9 C4.66 9.33 5.32 9.66 6 10 C8.41094362 10.09275395 10.79268319 10.12584719 13.20361328 10.11352539 C13.9451767 10.11367142 14.68674011 10.11381744 15.45077515 10.1139679 C17.90731713 10.11327 20.36378373 10.10548334 22.8203125 10.09765625 C24.5213924 10.09579163 26.22247284 10.09436794 27.92355347 10.09336853 C32.40506467 10.08954678 36.88654357 10.0797194 41.36804199 10.06866455 C45.9393673 10.05844308 50.51069781 10.05386933 55.08203125 10.04882812 C64.05470171 10.03809685 73.02734817 10.02102451 82 10 C82.33 9.34 82.66 8.68 83 8 C83.66 8 84.32 8 85 8 C84.01 5.36 83.02 2.72 82 0 C83.32 0.66 84.64 1.32 86 2 C86.48486052 8.30318682 86.48486052 8.30318682 84.46777344 11.20202637 C81.13325489 13.6314943 78.2381421 13.56179787 74.265625 13.51757812 C73.10395813 13.52809204 73.10395813 13.52809204 71.91882324 13.53881836 C69.36218268 13.55640499 66.80665156 13.54477389 64.25 13.53125 C62.47167753 13.53394474 60.69335649 13.53782701 58.91503906 13.54284668 C55.18931032 13.54874261 51.46396536 13.54017587 47.73828125 13.52148438 C42.96300713 13.49869459 38.18863224 13.51181719 33.41339111 13.53577423 C29.74163032 13.55022975 26.07008265 13.54562739 22.39831543 13.53526306 C20.63765354 13.53259508 18.87697229 13.53586804 17.11633301 13.54518127 C14.65515913 13.55534308 12.1954405 13.53985253 9.734375 13.51757812 C8.6432843 13.52972351 8.6432843 13.52972351 7.53015137 13.54211426 C4.15790353 13.48558373 2.28836896 13.21010024 -0.46777344 11.20202637 C-2.62072673 8.10792787 -2.2826081 5.67390533 -2 2 C-1.34 2 -0.68 2 0 2 C0 1.34 0 0.68 0 0 Z " fill="#FEFDDF" transform="translate(26,40)"/>
<path d="M0 0 C1.3348217 -0.00569504 1.3348217 -0.00569504 2.6966095 -0.01150513 C5.63802344 -0.01891399 8.57844922 0.00247827 11.51977539 0.02490234 C13.56474186 0.02728689 15.60971055 0.02819207 17.65467834 0.02767944 C21.94114899 0.03080814 26.22728533 0.04737766 30.51367188 0.07421875 C36.00607028 0.10817705 41.49810091 0.11584792 46.990592 0.11432838 C51.21394863 0.11487252 55.43722498 0.12584711 59.66055489 0.14033127 C61.68553624 0.14669262 63.71052669 0.15063661 65.7355175 0.15211868 C68.56732509 0.1564599 71.39874469 0.17397938 74.23046875 0.1953125 C75.06647614 0.19440613 75.90248352 0.19349976 76.76382446 0.19256592 C80.9387132 0.23850491 84.47414294 0.32258897 88.17993164 2.48583984 C88.67493164 3.97083984 88.67493164 3.97083984 89.17993164 5.48583984 C88.21230392 5.16085007 87.24467621 4.83586029 86.24772644 4.50102234 C81.84039104 3.24978778 77.65119807 3.21167717 73.09521484 3.24291992 C72.21304291 3.24102158 71.33087097 3.23912323 70.42196655 3.23716736 C67.52478973 3.23348196 64.62786718 3.24413024 61.73071289 3.25537109 C59.71005788 3.25656407 57.6894023 3.25701581 55.66874695 3.25675964 C51.44319159 3.25832054 47.21772143 3.26658166 42.9921875 3.2800293 C37.57495245 3.29705117 32.15781061 3.30084245 26.74055195 3.30008411 C22.5721701 3.3003559 18.40380865 3.30583799 14.23543358 3.31308556 C12.23753196 3.31626756 10.23962803 3.31823854 8.24172401 3.31897926 C5.45326415 3.32114592 2.66490342 3.32989636 -0.12353516 3.34057617 C-0.94907394 3.34012299 -1.77461273 3.3396698 -2.62516785 3.33920288 C-6.19207197 3.35919155 -9.38773033 3.52538316 -12.82006836 4.48583984 C-9.31164207 -0.28402357 -5.48985159 -0.07362552 0 0 Z " fill="#FEF4CC" transform="translate(31.820068359375,14.51416015625)"/>
<path d="M0 0 C0.99 0 1.98 0 3 0 C3 0.99 3 1.98 3 3 C3.99 3 4.98 3 6 3 C6 3.66 6 4.32 6 5 C6.99 5 7.98 5 9 5 C9 5.66 9 6.32 9 7 C9.80305573 6.99777939 10.60611145 6.99555878 11.4335022 6.99327087 C19.10847572 6.97299394 26.78343574 6.95788912 34.45842934 6.94818783 C38.40149734 6.94303223 42.34454269 6.93607296 46.28759766 6.92456055 C63.8840748 6.87449335 81.42723546 6.93370898 99 8 C99 8.33 99 8.66 99 9 C87.61259594 9.04634002 76.22521432 9.08187773 64.83773518 9.10362434 C59.55007408 9.1140616 54.26247749 9.12821985 48.97485352 9.15087891 C43.87203016 9.1726092 38.76926887 9.18456906 33.66640282 9.18975449 C31.71955577 9.19344989 29.77271212 9.20066605 27.82589149 9.21146011 C25.09910364 9.22597741 22.37257224 9.22797783 19.64575195 9.22705078 C18.84086334 9.23424133 18.03597473 9.24143188 17.20669556 9.24884033 C9.51312508 9.22053628 5.46581839 7.08448222 0 2 C0 1.34 0 0.68 0 0 Z " fill="#F5D270" transform="translate(13,156)"/>
<path d="M0 0 C0.99 0.33 1.98 0.66 3 1 C2.51202438 2.38415855 2.51202438 2.38415855 2.01419067 3.79627991 C0.56522394 8.90863381 0.73649446 13.98277237 0.77294922 19.25952148 C0.77265717 20.37245071 0.77236511 21.48537994 0.77206421 22.6320343 C0.77345283 26.29513459 0.78899228 29.95802917 0.8046875 33.62109375 C0.80841928 36.16699614 0.81126548 38.71289998 0.81326294 41.25880432 C0.82010798 47.26516019 0.83585631 53.27142834 0.85596192 59.27774912 C0.87836353 66.11936706 0.88932504 72.9609886 0.89935279 79.80263412 C0.92022386 93.86846325 0.95537314 107.9342276 1 122 C0.34 121.67 -0.32 121.34 -1 121 C-1.02333859 105.51887217 -1.04098391 90.03774565 -1.05181217 74.55660439 C-1.05697308 67.36878497 -1.06401189 60.18097647 -1.07543945 52.99316406 C-1.08539253 46.72980885 -1.09185492 40.46646155 -1.09408849 34.20309865 C-1.09539454 30.88531279 -1.09899419 27.56755488 -1.10573006 24.24977493 C-1.11294526 20.55012904 -1.11399073 16.85053065 -1.11352539 13.15087891 C-1.1189183 11.49255791 -1.1189183 11.49255791 -1.12442017 9.80073547 C-1.1230455 8.79670181 -1.12167084 7.79266815 -1.12025452 6.75820923 C-1.12117631 5.88250589 -1.1220981 5.00680256 -1.12304783 4.10456276 C-1 2 -1 2 0 0 Z " fill="#FFFDE6" transform="translate(8,28)"/>
<path d="M0 0 C0.88815903 -0.00029205 1.77631805 -0.00058411 2.69139099 -0.00088501 C5.62411299 0.00050721 8.55658025 0.01606341 11.48925781 0.03173828 C13.52378195 0.03546879 15.55830789 0.03831558 17.59283447 0.04031372 C22.9456682 0.04794716 28.29839326 0.06759324 33.65118408 0.08972168 C39.11412079 0.11018629 44.57707507 0.11931676 50.04003906 0.12939453 C60.7575347 0.15083934 71.47494972 0.18497187 82.19238281 0.22705078 C82.19238281 0.55705078 82.19238281 0.88705078 82.19238281 1.22705078 C36.65238281 1.72205078 36.65238281 1.72205078 -9.80761719 2.22705078 C-10.13761719 3.21705078 -10.46761719 4.20705078 -10.80761719 5.22705078 C-13.70320159 6.67484298 -15.54950657 7.22705078 -18.80761719 7.22705078 C-12.38217141 1.67780216 -8.71558705 -0.07491593 0 0 Z " fill="#EECC71" transform="translate(31.8076171875,16.77294921875)"/>
<path d="M0 0 C0.99 0.33 1.98 0.66 3 1 C2.01 1.66 1.02 2.32 0 3 C-0.43827201 4.90457929 -0.43827201 4.90457929 -0.3125 7 C-0.30863281 7.70125 -0.30476563 8.4025 -0.30078125 9.125 C-0.14912946 11.2416577 -0.14912946 11.2416577 2 13 C4.48566543 13.19948557 6.8575075 13.27989743 9.34375 13.265625 C10.43109436 13.26849518 10.43109436 13.26849518 11.54040527 13.27142334 C13.07365262 13.27278487 14.6069115 13.26909064 16.14013672 13.26074219 C18.49082259 13.25004178 20.84074423 13.26063808 23.19140625 13.2734375 C24.67968919 13.2721159 26.16797166 13.26955349 27.65625 13.265625 C28.36148804 13.26967346 29.06672607 13.27372192 29.79333496 13.27789307 C33.84601687 13.35277396 33.84601687 13.35277396 37 11 C37.39764263 9.01178687 37.73775349 7.01055661 38 5 C38.33 5 38.66 5 39 5 C39.48780921 11.34151972 39.48780921 11.34151972 37.37133789 14.19848633 C34.34768608 16.49556516 32.58027068 16.5238109 28.80859375 16.57421875 C27.61685547 16.60193359 26.42511719 16.62964844 25.19726562 16.65820312 C23.33618164 16.67270508 23.33618164 16.67270508 21.4375 16.6875 C18.97780158 16.72953524 16.51815786 16.77494757 14.05859375 16.82421875 C12.42361938 16.84101685 12.42361938 16.84101685 10.75561523 16.8581543 C7.90992847 16.88166795 7.90992847 16.88166795 5 18 C4.34 17.67 3.68 17.34 3 17 C3 16.34 3 15.68 3 15 C2.01 15 1.02 15 0 15 C-2.28062828 11.57905758 -2.21925007 10.31812778 -2.125 6.3125 C-2.10695313 5.31863281 -2.08890625 4.32476562 -2.0703125 3.30078125 C-2.04710938 2.54152344 -2.02390625 1.78226562 -2 1 C-1.34 0.67 -0.68 0.34 0 0 Z " fill="#F7D882" transform="translate(25,94)"/>
<path d="M0 0 C6.79930835 -0.02529479 13.59860463 -0.04284349 20.39794922 -0.05493164 C22.71240696 -0.05996943 25.0268615 -0.06679981 27.34130859 -0.07543945 C30.6624429 -0.08752924 33.98353525 -0.09323375 37.3046875 -0.09765625 C38.86411575 -0.10539818 38.86411575 -0.10539818 40.45504761 -0.11329651 C41.41589264 -0.11337204 42.37673767 -0.11344757 43.36669922 -0.11352539 C44.21497284 -0.115746 45.06324646 -0.11796661 45.93722534 -0.12025452 C48 0 48 0 50 1 C50 1.66 50 2.32 50 3 C33.5 3 17 3 0 3 C0 2.01 0 1.02 0 0 Z " fill="#F9CE80" transform="translate(26,64)"/>
<path d="M0 0 C0.66 0 1.32 0 2 0 C0.125 5.75 0.125 5.75 -1 8 C-1.66 8 -2.32 8 -3 8 C-2.94779297 9.91425781 -2.94779297 9.91425781 -2.89453125 11.8671875 C-2.86639769 13.53644521 -2.83909707 15.2057171 -2.8125 16.875 C-2.78736328 17.71675781 -2.76222656 18.55851562 -2.73632812 19.42578125 C-2.72666016 20.23144531 -2.71699219 21.03710938 -2.70703125 21.8671875 C-2.6913208 22.61081543 -2.67561035 23.35444336 -2.65942383 24.12060547 C-2.77181396 24.74080566 -2.8842041 25.36100586 -3 26 C-6.58668313 28.39112209 -8.16396569 28.23381027 -12.41796875 28.1953125 C-13.67158203 28.18886719 -14.92519531 28.18242187 -16.21679688 28.17578125 C-18.18229492 28.15064453 -18.18229492 28.15064453 -20.1875 28.125 C-21.52277987 28.11496639 -22.85806689 28.1058412 -24.19335938 28.09765625 C-27.46242015 28.07405292 -30.73112028 28.04112594 -34 28 C-34 27.67 -34 27.34 -34 27 C-25.09 27 -16.18 27 -7 27 C-5.81790406 22.27161622 -5.72403818 17.68921009 -5.65820312 12.84375 C-5.51696597 9.32267495 -5.3487753 7.40724848 -3.01953125 4.6875 C-2.01986328 3.8521875 -2.01986328 3.8521875 -1 3 C-0.67 2.01 -0.34 1.02 0 0 Z " fill="#F7D688" transform="translate(152,136)"/>
<path d="M0 0 C0.66 0 1.32 0 2 0 C2.22119939 2.62450086 2.42746669 5.24870486 2.625 7.875 C2.68945312 8.62136719 2.75390625 9.36773437 2.8203125 10.13671875 C2.96087365 12.0870047 2.98759849 14.04469467 3 16 C2.34 16.66 1.68 17.32 1 18 C0.17604844 20.8342208 -0.46623608 23.68877456 -1.12109375 26.56640625 C-1.41113281 27.36949219 -1.70117188 28.17257813 -2 29 C-2.99 29.33 -3.98 29.66 -5 30 C-4.79503906 29.32453125 -4.59007812 28.6490625 -4.37890625 27.953125 C-3.97478516 26.61507812 -3.97478516 26.61507812 -3.5625 25.25 C-3.29566406 24.36828125 -3.02882812 23.4865625 -2.75390625 22.578125 C-1.3000444 17.60636944 -0.71637674 12.92522083 -0.4375 7.75 C-0.37272461 6.63238281 -0.37272461 6.63238281 -0.30664062 5.4921875 C-0.20103275 3.661651 -0.10005799 1.83084824 0 0 Z " fill="#FEFBDE" transform="translate(157,112)"/>
<path d="M0 0 C4.30812106 6.46218159 5.28311511 12.66983554 5.3125 20.3125 C5.31781738 21.00625732 5.32313477 21.70001465 5.32861328 22.41479492 C5.27353802 26.39422413 4.83120451 28.33759098 3 32 C3 24.74 3 17.48 3 10 C2.34 10 1.68 10 1 10 C0.67 6.7 0.34 3.4 0 0 Z " fill="#F2D17F" transform="translate(152,100)"/>
<path d="M0 0 C0.66 0.33 1.32 0.66 2 1 C1.649375 1.556875 1.29875 2.11375 0.9375 2.6875 C-0.22672585 5.55925711 0.1293153 7.07133328 1 10 C2.9230889 11.9230889 6.47070485 11.25321838 9.09765625 11.31640625 C10.16094398 11.3475779 10.16094398 11.3475779 11.24571228 11.37937927 C13.51787305 11.44494598 15.79015264 11.5037923 18.0625 11.5625 C19.59962183 11.60567849 21.1367315 11.64929255 22.67382812 11.69335938 C26.4490959 11.80063449 30.2244836 11.90188137 34 12 C34 12.33 34 12.66 34 13 C29.35526018 13.07416067 24.71086501 13.12860615 20.06567383 13.16479492 C18.48553464 13.17988094 16.90543731 13.2003525 15.32543945 13.22631836 C13.05409415 13.26271126 10.78330241 13.27972762 8.51171875 13.29296875 C7.45219246 13.31619453 7.45219246 13.31619453 6.3712616 13.33988953 C1.476666 13.34156879 1.476666 13.34156879 -0.94677734 11.60498047 C-2.97298765 8.51728772 -2.28503438 5.59143323 -2 2 C-1.34 1.34 -0.68 0.68 0 0 Z " fill="#FFFCE6" transform="translate(26,95)"/>
<path d="M0 0 C0.33 0 0.66 0 1 0 C1.76774904 7.98458998 1.76774904 7.98458998 -0.9375 11.5625 C-5.05085562 13.49325876 -8.53358557 13.35030701 -13 13 C-13.33 12.01 -13.66 11.02 -14 10 C-11.0703125 10.04882812 -11.0703125 10.04882812 -8.140625 10.09765625 C-5.66000824 10.05530256 -5.66000824 10.05530256 -2 9 C-1.34 6.03 -0.68 3.06 0 0 Z " fill="#F4D472" transform="translate(146,119)"/>
<path d="M0 0 C2.4375 1.5 2.4375 1.5 4 3 C3.67 3.66 3.34 4.32 3 5 C2.484375 4.67 1.96875 4.34 1.4375 4 C-1.87219404 2.6421768 -4.45640517 2.67785502 -8 3 C-10.01951062 3.93597315 -10.01951062 3.93597315 -11 6 C-11.73041853 9.61023099 -11.73041853 9.61023099 -12 13 C-12.33 13 -12.66 13 -13 13 C-13.36601307 5.67973856 -13.36601307 5.67973856 -11.6875 2.5625 C-8.26042296 -0.61071948 -4.43870086 -0.31148778 0 0 Z " fill="#EDCA7D" transform="translate(141,111)"/>
<path d="M0 0 C1.19799449 4.14659373 0.8896192 7.99369047 0.5625 12.25 C0.48418945 13.36761719 0.48418945 13.36761719 0.40429688 14.5078125 C0.2751783 16.33894861 0.13834886 18.16953813 0 20 C-0.66 20 -1.32 20 -2 20 C-2 14.06 -2 8.12 -2 2 C-1.34 2 -0.68 2 0 2 C0 1.34 0 0.68 0 0 Z " fill="#FDFCD6" transform="translate(151,142)"/>
<path d="M0 0 C10.89 0 21.78 0 33 0 C33.495 1.485 33.495 1.485 34 3 C33.4834082 2.84152588 32.96681641 2.68305176 32.43457031 2.51977539 C29.28767106 1.84791934 26.26361848 1.77900563 23.046875 1.68359375 C22.05654266 1.6524221 22.05654266 1.6524221 21.04620361 1.62062073 C18.94756985 1.55549853 16.84881628 1.49641498 14.75 1.4375 C13.32290453 1.39427921 11.89582095 1.3506638 10.46875 1.30664062 C6.97929278 1.19985589 3.48970247 1.09848434 0 1 C0 0.67 0 0.34 0 0 Z " fill="#EED276" transform="translate(28,93)"/>
<path d="M0 0 C0.66 0.33 1.32 0.66 2 1 C1.07038578 2.15224028 0.1309875 3.29659176 -0.8125 4.4375 C-1.59560547 5.39462891 -1.59560547 5.39462891 -2.39453125 6.37109375 C-4 8 -4 8 -7 9 C-8.70586575 10.62652316 -10.3777546 12.29006566 -12 14 C-10.64763423 11.06120516 -9.10057341 8.70767089 -7 6.25 C-6.2265625 5.32960938 -6.2265625 5.32960938 -5.4375 4.390625 C-4 3 -4 3 -2 3 C-2 2.34 -2 1.68 -2 1 C-1.34 0.67 -0.68 0.34 0 0 Z " fill="#F3AC3A" transform="translate(88,85)"/>
<path d="M0 0 C0.99 0.66 1.98 1.32 3 2 C1.39125 1.938125 1.39125 1.938125 -0.25 1.875 C-4.58088226 1.85502502 -4.58088226 1.85502502 -8 4 C-8.95024789 6.66069409 -9.45974679 9.20869174 -10 12 C-10.33 12 -10.66 12 -11 12 C-11.48192771 4.77108434 -11.48192771 4.77108434 -9.4375 1.5 C-6.11203064 -0.54644269 -3.83693587 -0.41857482 0 0 Z " fill="#FEF7D1" transform="translate(140,113)"/>
<path d="M0 0 C0.66 0 1.32 0 2 0 C2 0.66 2 1.32 2 2 C2.66 2 3.32 2 4 2 C4.22162329 3.62324086 4.42689803 5.248721 4.625 6.875 C4.74101563 7.77992187 4.85703125 8.68484375 4.9765625 9.6171875 C4.98429687 10.40351562 4.99203125 11.18984375 5 12 C4.34 12.66 3.68 13.32 3 14 C2.34 14 1.68 14 1 14 C1.09539062 13.40832031 1.19078125 12.81664063 1.2890625 12.20703125 C1.94154485 7.55619775 2.34537279 4.27685626 0 0 Z " fill="#EAA84B" transform="translate(96,114)"/>
<path d="M0 0 C0.99 0.33 1.98 0.66 3 1 C2.67 1.53625 2.34 2.0725 2 2.625 C0.26158452 6.75373677 0.7023851 10.78275157 2 15 C0 13.4375 0 13.4375 -2 11 C-2.25 7.25 -2.25 7.25 -2 4 C-1.34 4 -0.68 4 0 4 C0 2.68 0 1.36 0 0 Z " fill="#EAAA4E" transform="translate(105,113)"/>
<path d="M0 0 C0 0.66 0 1.32 0 2 C-1.65 2 -3.3 2 -5 2 C-5.33 2.99 -5.66 3.98 -6 5 C-8.89558441 6.4477922 -10.74188938 7 -14 7 C-5.89473684 0 -5.89473684 0 0 0 Z " fill="#EFD57B" transform="translate(27,17)"/>
<path d="M0 0 C3.55670872 2.66753154 6.56380874 5.25201345 9 9 C8.6015625 11.15625 8.6015625 11.15625 8 13 C6.66094733 11.2126038 5.32890934 9.41995047 4 7.625 C3.2575 6.62726563 2.515 5.62953125 1.75 4.6015625 C0 2 0 2 0 0 Z " fill="#F1AD3D" transform="translate(75,139)"/>
<path d="M0 0 C4.41393071 2.20696535 6.64950384 4.66062248 9 9 C8.67 9.99 8.34 10.98 8 12 C6 10.8125 6 10.8125 4 9 C3.75 6.3125 3.75 6.3125 4 4 C2.68 3.34 1.36 2.68 0 2 C0 1.34 0 0.68 0 0 Z " fill="#F6D57A" transform="translate(143,89)"/>
<path d="M0 0 C1.32 0 2.64 0 4 0 C5.23184766 2.46369532 5.16732342 4.1894501 5.1875 6.9375 C5.20167969 7.81277344 5.21585937 8.68804687 5.23046875 9.58984375 C5 12 5 12 3 15 C2.01 14.67 1.02 14.34 0 14 C0.495 13.649375 0.99 13.29875 1.5 12.9375 C3.78748902 9.98282668 3.39419028 7.61341086 3 4 C2.01 3.34 1.02 2.68 0 2 C0 1.34 0 0.68 0 0 Z " fill="#EFD576" transform="translate(108,38)"/>
<path d="M0 0 C0.99 0 1.98 0 3 0 C3 0.99 3 1.98 3 3 C3.99 3 4.98 3 6 3 C6 3.66 6 4.32 6 5 C6.99 5 7.98 5 9 5 C9 5.99 9 6.98 9 8 C5.56247993 6.4722133 2.81046312 4.49818944 0 2 C0 1.34 0 0.68 0 0 Z " fill="#F4D481" transform="translate(13,156)"/>
<path d="M0 0 C0.66 0.33 1.32 0.66 2 1 C2.28571429 8.42857143 2.28571429 8.42857143 0 12 C-0.66 11.67 -1.32 11.34 -2 11 C-1.34 7.37 -0.68 3.74 0 0 Z " fill="#FDEDC9" transform="translate(144,116)"/>
<path d="M0 0 C0.66 0.33 1.32 0.66 2 1 C1.649375 1.556875 1.29875 2.11375 0.9375 2.6875 C-0.23188041 5.57197167 0.23889658 7.03169666 1 10 C1 10.99 1 11.98 1 13 C-0.5 12 -0.5 12 -2 10 C-2.39491399 7.20126171 -2.227129 4.86182546 -2 2 C-1.34 1.34 -0.68 0.68 0 0 Z " fill="#FEF9D1" transform="translate(26,95)"/>
<path d="M0 0 C1.32 0 2.64 0 4 0 C8.57142857 7.28571429 8.57142857 7.28571429 8 12 C7.73445312 11.42765625 7.46890625 10.8553125 7.1953125 10.265625 C5.94323109 7.8923988 4.5063648 5.87786714 2.875 3.75 C2.33617188 3.04359375 1.79734375 2.3371875 1.2421875 1.609375 C0.83226563 1.07828125 0.42234375 0.5471875 0 0 Z " fill="#FEFADB" transform="translate(121,20)"/>
<path d="M0 0 C0.33 0 0.66 0 1 0 C1.144375 1.0725 1.28875 2.145 1.4375 3.25 C1.83749442 5.91662949 2.27591924 8.41399729 3 11 C2.34 11 1.68 11 1 11 C-1.08997373 7.60379269 -1.2632246 4.94836905 -1 1 C-0.67 0.67 -0.34 0.34 0 0 Z " fill="#FEF4D3" transform="translate(106,117)"/>
<path d="M0 0 C0.66 0.66 1.32 1.32 2 2 C-0.31 1.67 -2.62 1.34 -5 1 C-5 1.66 -5 2.32 -5 3 C-6.65 3.33 -8.3 3.66 -10 4 C-9.67 3.01 -9.34 2.02 -9 1 C-5.98675805 -0.50662097 -3.31713623 -0.17770373 0 0 Z " fill="#FEF2CA" transform="translate(117,113)"/>
<path d="M0 0 C1.98 0.99 1.98 0.99 4 2 C4.36923077 8.52307692 4.36923077 8.52307692 2.5 10.9375 C2.005 11.288125 1.51 11.63875 1 12 C1 10.68 1 9.36 1 8 C1.66 8 2.32 8 3 8 C2.01 5.36 1.02 2.72 0 0 Z " fill="#FCF8CE" transform="translate(108,40)"/>
<path d="M0 0 C0.33 0 0.66 0 1 0 C1.53394179 1.4117783 2.05165104 2.82970244 2.5625 4.25 C2.85253906 5.03890625 3.14257812 5.8278125 3.44140625 6.640625 C4.04522837 9.19103452 3.8473932 10.55322229 3 13 C0.33409063 8.44573816 -0.31563182 5.26053037 0 0 Z " fill="#F7D57C" transform="translate(9,143)"/>
<path d="M0 0 C4.26086957 6.39130435 4.26086957 6.39130435 3.625 10.3125 C3.41875 10.869375 3.2125 11.42625 3 12 C3 11.34 3 10.68 3 10 C2.34 10 1.68 10 1 10 C0.67 6.7 0.34 3.4 0 0 Z " fill="#EDD879" transform="translate(152,100)"/>
<path d="M0 0 C6.4 -0.36923077 6.4 -0.36923077 9.4375 1.5 C9.953125 1.995 10.46875 2.49 11 3 C10.67 3.66 10.34 4.32 10 5 C9.278125 4.525625 8.55625 4.05125 7.8125 3.5625 C5.10524774 2.05847097 3.03805725 1.43400818 0 1 C0 0.67 0 0.34 0 0 Z " fill="#F7D274" transform="translate(134,111)"/>
<path d="M0 0 C0.66 0 1.32 0 2 0 C0.125 5.75 0.125 5.75 -1 8 C-1.66 8 -2.32 8 -3 8 C-3 6.68 -3 5.36 -3 4 C-2.34 3.67 -1.68 3.34 -1 3 C-0.67 2.01 -0.34 1.02 0 0 Z " fill="#F6D38B" transform="translate(152,136)"/>
<path d="M0 0 C2.31 0 4.62 0 7 0 C7.66 1.32 8.32 2.64 9 4 C6.03 3.01 3.06 2.02 0 1 C0 0.67 0 0.34 0 0 Z " fill="#FDF9DB" transform="translate(112,16)"/>
</svg>
